<?xml version="1.0" encoding="UTF-8"?>
<!DOCTYPE svg PUBLIC "-//W3C//DTD SVG 1.1//EN" "http://www.w3.org/Graphics/SVG/1.1/DTD/svg11.dtd">
<!-- Creator: CorelDRAW (Evaluation Version) -->
<svg xmlns="http://www.w3.org/2000/svg" xml:space="preserve" width="34.1115mm" height="26.4041mm" version="1.1" style="shape-rendering:geometricPrecision; text-rendering:geometricPrecision; image-rendering:optimizeQuality; fill-rule:evenodd; clip-rule:evenodd"
viewBox="0 0 1553.7 1202.65"
 xmlns:xlink="http://www.w3.org/1999/xlink"
 xmlns:xodm="http://www.corel.com/coreldraw/odm/2003">
 <defs>
  <style type="text/css">
   <![CDATA[
    .fil1 {fill:#0049E7}
    .fil0 {fill:#01052D;fill-rule:nonzero}
    .fil2 {fill:url(#id0)}
   ]]>
  </style>
  <linearGradient id="id0" gradientUnits="userSpaceOnUse" x1="446.09" y1="388.02" x2="1189.71" y2="213.21">
   <stop offset="0" style="stop-opacity:1; stop-color:#0049E7"/>
   <stop offset="1" style="stop-opacity:1; stop-color:aqua"/>
  </linearGradient>
 </defs>
 <g id="Camada_x0020_1">
  <metadata id="CorelCorpID_0Corel-Layer"/>
  <g id="_2125186589328">
   <polygon class="fil0" points="-0,1057.95 131.19,1057.95 131.19,751.84 -0,751.84 "/>
   <path id="_1" class="fil0" d="M312.66 904.89c0,-60.35 68.22,-78.27 147.37,-78.27 90.95,0 196.34,23.61 230.45,35.42l0 -85.27c-42.86,-21.87 -133.38,-38.92 -228.27,-38.92 -145.62,0 -300.42,40.67 -304.8,167.05 4.37,126.38 159.18,167.05 304.8,167.05 94.89,0 185.41,-17.05 228.27,-38.92l0 -85.27c-34.11,11.81 -139.5,35.42 -230.45,35.42 -79.15,0 -147.37,-17.93 -147.37,-78.28z"/>
   <polygon id="_2" class="fil0" points="738.59,1057.95 869.78,1057.95 869.78,751.84 738.59,751.84 "/>
   <path id="_3" class="fil0" d="M1402.84 1057.95l150.87 0 -176.23 -306.11 -305.23 0 -176.23 306.11 150.87 0 63.41 -109.32 229.58 0 62.97 109.32zm-242.26 -196.78l12.68 -21.86c2.62,0 103.2,0 103.2,0l12.68 21.86 -128.56 0z"/>
   <path class="fil0" d="M79.85 1202.65c16.07,0 29.71,-9.72 34.37,-23.68l-6.14 0c-4.23,10.79 -15.33,18.29 -28.23,18.29 -19.45,0 -32.89,-14.59 -32.89,-32.78 0,-18.19 13.43,-32.78 32.89,-32.78 12.9,0 24,7.51 28.23,18.29l6.14 0c-4.65,-13.96 -18.4,-23.68 -34.37,-23.68 -22.52,0 -38.49,17.02 -38.49,38.17 0,21.15 15.96,38.17 38.49,38.17z"/>
   <polygon id="_1_0" class="fil0" points="338.08,1127.47 338.08,1160.78 300.75,1160.78 300.75,1127.47 295.15,1127.47 295.15,1201.49 300.75,1201.49 300.75,1166.07 338.08,1166.07 338.08,1201.49 343.79,1201.49 343.79,1127.47 "/>
   <path id="_2_1" class="fil0" d="M580.12 1201.49l5.92 0 -28.65 -74.02 -5.92 0 -28.76 74.02 5.92 0 7.3 -18.82 37.01 0 7.19 18.82zm-42.19 -24.11l16.49 -43.03 16.5 43.03 -32.99 0z"/>
   <polygon id="_3_2" class="fil0" points="801.02,1127.47 779.87,1127.47 753.02,1127.47 753.02,1132.76 774.17,1132.76 774.17,1201.49 779.87,1201.49 779.87,1132.76 801.02,1132.76 "/>
   <path id="_4" class="fil0" d="M1025.2 1154.44c1.8,-2.75 2.86,-6.14 2.86,-9.62 0,-9.51 -7.3,-17.34 -18.4,-17.34l-23.16 0 -5.6 0 0 74.02 1.06 0 34.78 0c13.43,0 23.37,-11 23.37,-24.32 0,-10.47 -5.92,-19.35 -14.91,-22.73zm-15.54 -21.68c7.93,0 12.79,5.39 12.79,12.05 0,3.07 -1.17,6.03 -3.07,8.14 -0.85,-0.1 -1.69,-0.1 -2.54,-0.1l-30.34 0 0 -20.09 23.16 0zm6.34 63.44l-29.5 0 0 -38.06 29.61 0c11,0 18.29,8.46 18.29,19.03 0,10.47 -7.4,19.03 -18.4,19.03z"/>
   <path id="_5" class="fil0" d="M1254.77 1202.65c21.36,0 38.17,-17.02 38.17,-38.17 0,-21.15 -16.81,-38.17 -38.17,-38.17 -21.36,0 -38.17,17.02 -38.17,38.17 0,21.15 16.81,38.17 38.17,38.17zm0 -5.39c-18.29,0 -32.57,-14.59 -32.57,-32.78 0,-18.19 14.27,-32.78 32.57,-32.78 18.29,0 32.57,14.59 32.57,32.78 0,18.19 -14.27,32.78 -32.57,32.78z"/>
   <polygon id="_6" class="fil0" points="1512.36,1127.47 1491.21,1127.47 1464.36,1127.47 1464.36,1132.76 1485.51,1132.76 1485.51,1201.49 1491.21,1201.49 1491.21,1132.76 1512.36,1132.76 "/>
   <g>
    <g>
     <circle class="fil1" cx="678" cy="263.67" r="42.78"/>
     <circle class="fil1" cx="875.73" cy="263.67" r="42.78"/>
    </g>
    <path class="fil2" d="M692.07 620.54c52.6,-33.65 104.98,-70.28 157.57,-103.93 32.8,0 54.34,0 87.14,0 55.22,0 145.51,-55 145.65,-115.81 0.85,-96 -0.98,-191.57 -0.14,-287.57 0,-60.45 -72.09,-113.24 -125.12,-113.24 -113.39,0 -244.6,0 -357.99,0 -71.78,0 -128.1,56.06 -128.1,113.24 0,103.63 -0,183.94 -0,287.57 0,51.18 68.18,115.81 128.1,115.81 34.5,0 58.39,0 92.89,0 0,-32.24 0,-64.48 0,-96.71 -29.41,0 -63.48,0 -92.89,0 -20.81,0 -37.76,-19.88 -37.76,-39.02 0,-79.03 0,-158.07 0,-237.1 0,-19.91 14.18,-43.05 37.76,-43.05 110.77,0 226.83,0 337.6,0 30.51,0 45.39,21.72 45.39,43.05 0,82.99 0,154.11 0,237.1 0,23.69 -23.91,39.02 -45.39,39.02 -32.23,0 -50.53,0 -82.77,0l-161.94 103.7 0 96.94z"/>
   </g>
  </g>
 </g>
</svg>
