<?xml version="1.0" encoding="UTF-8"?>
<!DOCTYPE svg PUBLIC "-//W3C//DTD SVG 1.1//EN" "http://www.w3.org/Graphics/SVG/1.1/DTD/svg11.dtd">
<!-- Creator: CorelDRAW (Evaluation Version) -->
<svg xmlns="http://www.w3.org/2000/svg" xml:space="preserve" width="42.8148mm" height="11.6276mm" version="1.1" style="shape-rendering:geometricPrecision; text-rendering:geometricPrecision; image-rendering:optimizeQuality; fill-rule:evenodd; clip-rule:evenodd"
viewBox="0 0 7129.27 1936.16"
 xmlns:xlink="http://www.w3.org/1999/xlink"
 xmlns:xodm="http://www.corel.com/coreldraw/odm/2003">
 <defs>
  <style type="text/css">
   <![CDATA[
    .fil1 {fill:#0049E7}
    .fil0 {fill:#FEFEFE;fill-rule:nonzero}
    .fil2 {fill:url(#id0)}
   ]]>
  </style>
  <linearGradient id="id0" gradientUnits="userSpaceOnUse" x1="-77.96" y1="1210.66" x2="2242.23" y2="665.26">
   <stop offset="0" style="stop-opacity:1; stop-color:#0049E7"/>
   <stop offset="1" style="stop-opacity:1; stop-color:aqua"/>
  </linearGradient>
 </defs>
 <g id="Camada_x0020_1">
  <metadata id="CorelCorpID_0Corel-Layer"/>
  <g id="_2160541832256">
   <polygon class="fil0" points="2281.51,1203.3 2690.84,1203.3 2690.84,248.21 2281.51,248.21 "/>
   <path id="_1" class="fil0" d="M3257.07 725.75c0,-188.29 212.84,-244.23 459.8,-244.23 283.81,0 612.64,73.68 719.06,110.52l0 -266.06c-133.71,-68.22 -416.15,-121.44 -712.23,-121.44 -454.35,0 -937.36,126.88 -951,521.21 13.64,394.32 496.65,521.21 951,521.21 296.08,0 578.52,-53.22 712.23,-121.44l0 -266.06c-106.42,36.85 -435.25,110.52 -719.06,110.52 -246.96,0 -459.8,-55.93 -459.8,-244.23z"/>
   <polygon id="_2" class="fil0" points="4586,1203.3 4995.33,1203.3 4995.33,248.21 4586,248.21 "/>
   <path id="_3" class="fil0" d="M6658.54 1203.3l470.74 0 -549.86 -955.09 -952.36 0 -549.86 955.09 470.72 0 197.85 -341.1 716.31 0 196.47 341.1zm-755.87 -613.99l39.56 -68.22c8.19,0 322.01,0 322.01,0l39.56 68.22 -401.13 0z"/>
   <path class="fil0" d="M2530.58 1654.8c50.15,0 92.72,-30.36 107.22,-73.9l-19.13 0c-13.19,33.65 -47.84,57.06 -88.09,57.06 -60.69,0 -102.61,-45.52 -102.61,-102.27 0,-56.73 41.91,-102.27 102.61,-102.27 40.25,0 74.9,23.43 88.09,57.08l19.13 0c-14.5,-43.54 -57.4,-73.9 -107.22,-73.9 -70.27,0 -120.09,53.12 -120.09,119.09 0,65.99 49.82,119.11 120.09,119.11z"/>
   <polygon id="_1_0" class="fil0" points="3336.3,1420.23 3336.3,1524.15 3219.84,1524.15 3219.84,1420.23 3202.35,1420.23 3202.35,1651.17 3219.84,1651.17 3219.84,1540.66 3336.3,1540.66 3336.3,1651.17 3354.11,1651.17 3354.11,1420.23 "/>
   <path id="_2_1" class="fil0" d="M4091.54 1651.17l18.47 0 -89.4 -230.94 -18.48 0 -89.73 230.94 18.48 0 22.76 -58.73 115.46 0 22.45 58.73zm-131.65 -75.21l51.47 -134.28 51.47 134.28 -102.94 0z"/>
   <polygon id="_3_2" class="fil0" points="4780.79,1420.23 4714.8,1420.23 4631.01,1420.23 4631.01,1436.73 4696.98,1436.73 4696.98,1651.17 4714.8,1651.17 4714.8,1436.73 4780.79,1436.73 "/>
   <path id="_4" class="fil0" d="M5480.27 1504.36c5.61,-8.58 8.91,-19.13 8.91,-30.02 0,-29.69 -22.76,-54.1 -57.4,-54.1l-72.25 0 -17.48 0 0 230.94 3.3 0 108.53 0c41.91,0 72.92,-34.32 72.92,-75.88 0,-32.65 -18.48,-60.38 -46.52,-70.94zm-48.49 -67.62c24.74,0 39.91,16.82 39.91,37.6 0,9.57 -3.63,18.82 -9.56,25.41 -2.65,-0.33 -5.28,-0.33 -7.93,-0.33l-94.68 0 0 -62.68 72.25 0zm19.8 197.94l-92.05 0 0 -118.76 92.37 0c34.32,0 57.08,26.39 57.08,59.38 0,32.65 -23.1,59.38 -57.4,59.38z"/>
   <path id="_5" class="fil0" d="M6196.58 1654.8c66.64,0 119.09,-53.12 119.09,-119.11 0,-65.97 -52.45,-119.09 -119.09,-119.09 -66.66,0 -119.11,53.12 -119.11,119.09 0,65.99 52.45,119.11 119.11,119.11zm0 -16.83c-57.08,0 -101.62,-45.52 -101.62,-102.27 0,-56.73 44.54,-102.27 101.62,-102.27 57.06,0 101.61,45.54 101.61,102.27 0,56.75 -44.54,102.27 -101.61,102.27z"/>
   <polygon id="_6" class="fil0" points="7000.31,1420.23 6934.32,1420.23 6850.53,1420.23 6850.53,1436.73 6916.5,1436.73 6916.5,1651.17 6934.32,1651.17 6934.32,1436.73 7000.31,1436.73 "/>
   <g>
    <g>
     <circle class="fil1" cx="645.63" cy="822.69" r="133.47"/>
     <circle class="fil1" cx="1262.58" cy="822.69" r="133.47"/>
    </g>
    <path class="fil2" d="M689.52 1936.16c164.12,-104.99 327.55,-219.28 491.65,-324.27 102.34,0 169.53,0 271.88,0 172.28,0 454.02,-171.61 454.43,-361.34 2.65,-299.53 -3.06,-597.7 -0.42,-897.25 0,-188.63 -224.94,-353.31 -390.41,-353.31 -353.79,0 -763.18,0 -1116.96,0 -223.96,0 -399.7,174.91 -399.7,353.31 0,323.35 0,573.89 0,897.25 0,159.7 212.74,361.34 399.7,361.34 107.63,0 182.18,0 289.82,0 0,-100.59 0,-201.17 0,-301.76 -91.75,0 -198.07,0 -289.82,0 -64.92,0 -117.83,-62.03 -117.83,-121.76 0,-246.59 0,-493.2 0,-739.79 0,-62.13 44.24,-134.31 117.83,-134.31 345.62,0 707.72,0 1053.35,0 95.2,0 141.6,67.79 141.6,134.31 0,258.95 0,480.84 0,739.79 0,73.93 -74.6,121.76 -141.6,121.76 -100.59,0 -157.67,0 -258.25,0l-505.29 323.57 0 302.46z"/>
   </g>
  </g>
 </g>
</svg>
