<?xml version="1.0" encoding="UTF-8"?>
<!DOCTYPE svg PUBLIC "-//W3C//DTD SVG 1.1//EN" "http://www.w3.org/Graphics/SVG/1.1/DTD/svg11.dtd">
<!-- Creator: CorelDRAW (Evaluation Version) -->
<svg xmlns="http://www.w3.org/2000/svg" xml:space="preserve" width="29.1132mm" height="22.5351mm" version="1.1" style="shape-rendering:geometricPrecision; text-rendering:geometricPrecision; image-rendering:optimizeQuality; fill-rule:evenodd; clip-rule:evenodd"
viewBox="0 0 868.06 671.92"
 xmlns:xlink="http://www.w3.org/1999/xlink"
 xmlns:xodm="http://www.corel.com/coreldraw/odm/2003">
 <defs>
  <style type="text/css">
   <![CDATA[
    .fil1 {fill:#0049E7}
    .fil0 {fill:#FEFEFE;fill-rule:nonzero}
    .fil2 {fill:url(#id0)}
   ]]>
  </style>
  <linearGradient id="id0" gradientUnits="userSpaceOnUse" x1="249.23" y1="216.79" x2="664.69" y2="119.12">
   <stop offset="0" style="stop-opacity:1; stop-color:#0049E7"/>
   <stop offset="1" style="stop-opacity:1; stop-color:aqua"/>
  </linearGradient>
 </defs>
 <g id="Camada_x0020_1">
  <metadata id="CorelCorpID_0Corel-Layer"/>
  <g id="_2124413591648">
   <polygon class="fil0" points="-0,591.08 73.3,591.08 73.3,420.05 -0,420.05 "/>
   <path id="_1" class="fil0" d="M174.69 505.56c0,-33.72 38.11,-43.73 82.33,-43.73 50.82,0 109.7,13.19 128.76,19.79l0 -47.64c-23.94,-12.22 -74.52,-21.75 -127.54,-21.75 -81.36,0 -167.85,22.72 -170.29,93.33 2.44,70.61 88.93,93.33 170.29,93.33 53.02,0 103.59,-9.53 127.54,-21.75l0 -47.64c-19.06,6.6 -77.94,19.79 -128.76,19.79 -44.22,0 -82.33,-10.02 -82.33,-43.73z"/>
   <polygon id="_2" class="fil0" points="412.65,591.08 485.95,591.08 485.95,420.05 412.65,420.05 "/>
   <path id="_3" class="fil0" d="M783.77 591.08l84.29 0 -98.46 -171.02 -170.53 0 -98.46 171.02 84.29 0 35.43 -61.08 128.27 0 35.18 61.08zm-135.35 -109.94l7.08 -12.22c1.47,0 57.66,0 57.66,0l7.08 12.22 -71.83 0z"/>
   <path class="fil0" d="M44.6 671.92c8.98,0 16.6,-5.44 19.2,-13.23l-3.43 0c-2.36,6.03 -8.57,10.22 -15.77,10.22 -10.87,0 -18.37,-8.15 -18.37,-18.31 0,-10.16 7.5,-18.31 18.37,-18.31 7.21,0 13.41,4.2 15.77,10.22l3.43 0c-2.6,-7.8 -10.28,-13.23 -19.2,-13.23 -12.58,0 -21.5,9.51 -21.5,21.32 0,11.82 8.92,21.33 21.5,21.33z"/>
   <polygon id="_1_0" class="fil0" points="188.87,629.92 188.87,648.53 168.02,648.53 168.02,629.92 164.89,629.92 164.89,671.27 168.02,671.27 168.02,651.48 188.87,651.48 188.87,671.27 192.06,671.27 192.06,629.92 "/>
   <path id="_2_1" class="fil0" d="M324.11 671.27l3.31 0 -16.01 -41.35 -3.31 0 -16.07 41.35 3.31 0 4.08 -10.52 20.67 0 4.02 10.52zm-23.57 -13.47l9.22 -24.04 9.22 24.04 -18.43 0z"/>
   <polygon id="_3_2" class="fil0" points="447.53,629.92 435.72,629.92 420.71,629.92 420.71,632.88 432.52,632.88 432.52,671.27 435.72,671.27 435.72,632.88 447.53,632.88 "/>
   <path id="_4" class="fil0" d="M572.78 644.98c1,-1.54 1.6,-3.43 1.6,-5.38 0,-5.32 -4.08,-9.69 -10.28,-9.69l-12.94 0 -3.13 0 0 41.35 0.59 0 19.43 0c7.5,0 13.06,-6.15 13.06,-13.59 0,-5.85 -3.31,-10.81 -8.33,-12.7zm-8.68 -12.11c4.43,0 7.15,3.01 7.15,6.73 0,1.71 -0.65,3.37 -1.71,4.55 -0.47,-0.06 -0.95,-0.06 -1.42,-0.06l-16.95 0 0 -11.22 12.94 0zm3.55 35.44l-16.48 0 0 -21.27 16.54 0c6.15,0 10.22,4.73 10.22,10.63 0,5.85 -4.14,10.63 -10.28,10.63z"/>
   <path id="_5" class="fil0" d="M701.05 671.92c11.93,0 21.32,-9.51 21.32,-21.33 0,-11.81 -9.39,-21.32 -21.32,-21.32 -11.94,0 -21.33,9.51 -21.33,21.32 0,11.82 9.39,21.33 21.33,21.33zm0 -3.01c-10.22,0 -18.2,-8.15 -18.2,-18.31 0,-10.16 7.98,-18.31 18.2,-18.31 10.22,0 18.19,8.15 18.19,18.31 0,10.16 -7.98,18.31 -18.19,18.31z"/>
   <polygon id="_6" class="fil0" points="844.97,629.92 833.15,629.92 818.15,629.92 818.15,632.88 829.96,632.88 829.96,671.27 833.15,671.27 833.15,632.88 844.97,632.88 "/>
   <g>
    <g>
     <circle class="fil1" cx="378.8" cy="147.31" r="23.9"/>
     <circle class="fil1" cx="489.27" cy="147.31" r="23.9"/>
    </g>
    <path class="fil2" d="M386.66 346.7c29.39,-18.8 58.65,-39.27 88.04,-58.07 18.33,0 30.36,0 48.68,0 30.85,0 81.3,-30.73 81.37,-64.7 0.47,-53.63 -0.55,-107.03 -0.07,-160.66 0,-33.78 -40.28,-63.27 -69.91,-63.27 -63.35,0 -136.66,0 -200.01,0 -40.1,0 -71.57,31.32 -71.57,63.27 0,57.9 0,102.76 0,160.66 0,28.6 38.09,64.7 71.57,64.7 19.27,0 32.62,0 51.9,0 0,-18.01 0,-36.02 0,-54.03 -16.43,0 -35.47,0 -51.9,0 -11.63,0 -21.1,-11.11 -21.1,-21.8 0,-44.16 0,-88.31 0,-132.47 0,-11.12 7.92,-24.05 21.1,-24.05 61.89,0 126.73,0 188.62,0 17.05,0 25.36,12.14 25.36,24.05 0,46.37 0,86.1 0,132.47 0,13.24 -13.36,21.8 -25.36,21.8 -18.01,0 -28.23,0 -46.24,0l-90.48 57.94 0 54.16z"/>
   </g>
  </g>
 </g>
</svg>
