<?xml version="1.0" encoding="UTF-8"?>
<!DOCTYPE svg PUBLIC "-//W3C//DTD SVG 1.1//EN" "http://www.w3.org/Graphics/SVG/1.1/DTD/svg11.dtd">
<!-- Creator: CorelDRAW (Evaluation Version) -->
<svg xmlns="http://www.w3.org/2000/svg" xml:space="preserve" width="50.1655mm" height="13.6241mm" version="1.1" style="shape-rendering:geometricPrecision; text-rendering:geometricPrecision; image-rendering:optimizeQuality; fill-rule:evenodd; clip-rule:evenodd"
viewBox="0 0 4826 1310.66"
 xmlns:xlink="http://www.w3.org/1999/xlink"
 xmlns:xodm="http://www.corel.com/coreldraw/odm/2003">
 <defs>
  <style type="text/css">
   <![CDATA[
    .fil1 {fill:#0049E7}
    .fil0 {fill:#01052D;fill-rule:nonzero}
    .fil2 {fill:url(#id0)}
   ]]>
  </style>
  <linearGradient id="id0" gradientUnits="userSpaceOnUse" x1="-52.78" y1="819.54" x2="1517.84" y2="450.34">
   <stop offset="0" style="stop-opacity:1; stop-color:#0049E7"/>
   <stop offset="1" style="stop-opacity:1; stop-color:aqua"/>
  </linearGradient>
 </defs>
 <g id="Camada_x0020_1">
  <metadata id="CorelCorpID_0Corel-Layer"/>
  <g id="_2125186594464">
   <polygon class="fil0" points="1544.42,814.57 1821.5,814.57 1821.5,168.04 1544.42,168.04 "/>
   <path id="_1" class="fil0" d="M2204.8 491.3c0,-127.46 144.08,-165.32 311.26,-165.32 192.11,0 414.7,49.87 486.74,74.81l0 -180.1c-90.52,-46.19 -281.71,-82.2 -482.12,-82.2 -307.57,0 -634.53,85.9 -643.76,352.82 9.24,266.93 336.2,352.82 643.76,352.82 200.42,0 391.61,-36.02 482.12,-82.19l0 -180.11c-72.05,24.94 -294.64,74.82 -486.74,74.82 -167.18,0 -311.26,-37.87 -311.26,-165.33z"/>
   <polygon id="_2" class="fil0" points="3104.4,814.57 3381.48,814.57 3381.48,168.04 3104.4,168.04 "/>
   <path id="_3" class="fil0" d="M4507.35 814.57l318.65 0 -372.21 -646.53 -644.69 0 -372.21 646.53 318.65 0 133.92 -230.9 484.89 0 133 230.9zm-511.68 -415.63l26.78 -46.18c5.54,0 217.97,0 217.97,0l26.78 46.18 -271.54 0z"/>
   <path class="fil0" d="M1713.07 1120.19c33.94,0 62.75,-20.54 72.58,-50.02l-12.96 0c-8.93,22.78 -32.38,38.63 -59.63,38.63 -41.09,0 -69.46,-30.81 -69.46,-69.23 0,-38.41 28.37,-69.23 69.46,-69.23 27.24,0 50.7,15.85 59.63,38.63l12.96 0c-9.83,-29.48 -38.87,-50.02 -72.58,-50.02 -47.57,0 -81.29,35.95 -81.29,80.62 0,44.67 33.72,80.62 81.29,80.62z"/>
   <polygon id="_1_0" class="fil0" points="2258.48,961.41 2258.48,1031.76 2179.64,1031.76 2179.64,961.41 2167.81,961.41 2167.81,1117.74 2179.64,1117.74 2179.64,1042.92 2258.48,1042.92 2258.48,1117.74 2270.53,1117.74 2270.53,961.41 "/>
   <path id="_2_1" class="fil0" d="M2769.69 1117.74l12.51 0 -60.52 -156.33 -12.51 0 -60.74 156.33 12.51 0 15.41 -39.75 78.16 0 15.18 39.75zm-89.1 -50.92l34.83 -90.89 34.84 90.89 -69.68 0z"/>
   <polygon id="_3_2" class="fil0" points="3236.26,961.41 3191.6,961.41 3134.87,961.41 3134.87,972.58 3179.54,972.58 3179.54,1117.74 3191.6,1117.74 3191.6,972.58 3236.26,972.58 "/>
   <path id="_4" class="fil0" d="M3709.75 1018.36c3.8,-5.81 6.03,-12.96 6.03,-20.33 0,-20.1 -15.41,-36.62 -38.86,-36.62l-48.91 0 -11.83 0 0 156.33 2.23 0 73.47 0c28.36,0 49.35,-23.22 49.35,-51.36 0,-22.11 -12.51,-40.87 -31.49,-48.01zm-32.82 -45.78c16.75,0 27.02,11.39 27.02,25.45 0,6.48 -2.46,12.73 -6.47,17.2 -1.79,-0.22 -3.58,-0.22 -5.37,-0.22l-64.09 0 0 -42.43 48.91 0zm13.4 133.99l-62.31 0 0 -80.4 62.53 0c23.22,0 38.63,17.86 38.63,40.2 0,22.11 -15.63,40.19 -38.86,40.19z"/>
   <path id="_5" class="fil0" d="M4194.62 1120.19c45.12,0 80.63,-35.95 80.63,-80.62 0,-44.67 -35.51,-80.62 -80.63,-80.62 -45.11,0 -80.62,35.95 -80.62,80.62 0,44.67 35.51,80.62 80.62,80.62zm0 -11.39c-38.63,0 -68.78,-30.81 -68.78,-69.23 0,-38.41 30.15,-69.23 68.78,-69.23 38.63,0 68.78,30.81 68.78,69.23 0,38.41 -30.15,69.23 -68.78,69.23z"/>
   <polygon id="_6" class="fil0" points="4738.68,961.41 4694.01,961.41 4637.29,961.41 4637.29,972.58 4681.96,972.58 4681.96,1117.74 4694.01,1117.74 4694.01,972.58 4738.68,972.58 "/>
   <g>
    <g>
     <circle class="fil1" cx="437.05" cy="556.91" r="90.35"/>
     <circle class="fil1" cx="854.68" cy="556.91" r="90.35"/>
    </g>
    <path class="fil2" d="M466.76 1310.66c111.09,-71.07 221.72,-148.45 332.81,-219.52 69.28,0 114.76,0 184.04,0 116.63,0 307.34,-116.15 307.62,-244.58 1.79,-202.77 -2.08,-404.61 -0.29,-607.38 0,-127.69 -152.26,-239.18 -264.28,-239.18 -239.49,0 -516.61,0 -756.11,0 -151.6,0 -270.56,118.41 -270.56,239.18 0,218.89 -0.01,388.48 -0.01,607.38 0.01,108.1 144,244.58 270.57,244.58 72.86,0 123.33,0 196.19,0 0,-68.08 0,-136.17 0,-204.26 -62.12,0 -134.09,0 -196.19,0 -43.94,0 -79.75,-41.99 -79.75,-82.43 0,-166.93 0,-333.86 0,-500.79 0,-42.05 29.95,-90.91 79.75,-90.91 233.96,0 479.08,0 713.05,0 64.45,0 95.86,45.88 95.86,90.91 0,175.3 0,325.5 0,500.79 0,50.04 -50.5,82.43 -95.86,82.43 -68.08,0 -106.73,0 -174.82,0l-342.04 219.03 0 204.75z"/>
   </g>
  </g>
 </g>
</svg>
