<?xml version="1.0" encoding="UTF-8"?>
<!DOCTYPE svg PUBLIC "-//W3C//DTD SVG 1.1//EN" "http://www.w3.org/Graphics/SVG/1.1/DTD/svg11.dtd">
<!-- Creator: CorelDRAW (Evaluation Version) -->
<svg xmlns="http://www.w3.org/2000/svg" xml:space="preserve" width="50.1653mm" height="13.6241mm" version="1.1" style="shape-rendering:geometricPrecision; text-rendering:geometricPrecision; image-rendering:optimizeQuality; fill-rule:evenodd; clip-rule:evenodd"
viewBox="0 0 4825.96 1310.66"
 xmlns:xlink="http://www.w3.org/1999/xlink"
 xmlns:xodm="http://www.corel.com/coreldraw/odm/2003">
 <defs>
  <style type="text/css">
   <![CDATA[
    .fil1 {fill:#FEFEFE}
    .fil0 {fill:#FEFEFE;fill-rule:nonzero}
   ]]>
  </style>
 </defs>
 <g id="Camada_x0020_1">
  <metadata id="CorelCorpID_0Corel-Layer"/>
  <g id="_2124413580848">
   <polygon class="fil0" points="1544.41,814.56 1821.49,814.56 1821.49,168.04 1544.41,168.04 "/>
   <path id="_1" class="fil0" d="M2204.78 491.31c0,-127.46 144.09,-165.33 311.26,-165.33 192.1,0 414.69,49.88 486.74,74.82l0 -180.11c-90.52,-46.18 -281.71,-82.19 -482.12,-82.19 -307.56,0 -634.51,85.9 -643.75,352.82 9.24,266.92 336.19,352.81 643.75,352.81 200.42,0 391.61,-36.02 482.12,-82.19l0 -180.11c-72.05,24.94 -294.64,74.82 -486.74,74.82 -167.17,0 -311.26,-37.86 -311.26,-165.32z"/>
   <polygon id="_2" class="fil0" points="3104.38,814.56 3381.45,814.56 3381.45,168.04 3104.38,168.04 "/>
   <path id="_3" class="fil0" d="M4507.32 814.56l318.65 0 -372.21 -646.52 -644.67 0 -372.21 646.52 318.64 0 133.92 -230.9 484.89 0 133 230.9zm-511.68 -415.62l26.78 -46.18c5.54,0 217.97,0 217.97,0l26.78 46.18 -271.54 0z"/>
   <path class="fil0" d="M1713.08 1120.19c33.94,0 62.74,-20.54 72.57,-50.02l-12.96 0c-8.93,22.77 -32.37,38.62 -59.62,38.62 -41.1,0 -69.46,-30.81 -69.46,-69.23 0,-38.4 28.36,-69.23 69.46,-69.23 27.24,0 50.69,15.86 59.62,38.63l12.96 0c-9.83,-29.48 -38.86,-50.02 -72.57,-50.02 -47.57,0 -81.29,35.95 -81.29,80.61 0,44.67 33.72,80.62 81.29,80.62z"/>
   <polygon id="_1_0" class="fil0" points="2258.47,961.42 2258.47,1031.76 2179.64,1031.76 2179.64,961.42 2167.81,961.42 2167.81,1117.73 2179.64,1117.73 2179.64,1042.93 2258.47,1042.93 2258.47,1117.73 2270.53,1117.73 2270.53,961.42 "/>
   <path id="_2_1" class="fil0" d="M2769.69 1117.73l12.51 0 -60.52 -156.32 -12.51 0 -60.74 156.32 12.51 0 15.41 -39.75 78.15 0 15.19 39.75zm-89.1 -50.92l34.83 -90.88 34.83 90.88 -69.67 0z"/>
   <polygon id="_3_2" class="fil0" points="3236.25,961.42 3191.58,961.42 3134.86,961.42 3134.86,972.59 3179.52,972.59 3179.52,1117.73 3191.58,1117.73 3191.58,972.59 3236.25,972.59 "/>
   <path id="_4" class="fil0" d="M3709.73 1018.36c3.79,-5.8 6.03,-12.95 6.03,-20.32 0,-20.1 -15.41,-36.62 -38.87,-36.62l-48.9 0 -11.83 0 0 156.32 2.23 0 73.47 0c28.36,0 49.35,-23.22 49.35,-51.36 0,-22.11 -12.51,-40.87 -31.49,-48.01zm-32.83 -45.77c16.75,0 27.02,11.38 27.02,25.45 0,6.47 -2.45,12.73 -6.47,17.19 -1.79,-0.22 -3.57,-0.22 -5.36,-0.22l-64.09 0 0 -42.42 48.9 0zm13.4 133.98l-62.3 0 0 -80.39 62.52 0c23.23,0 38.63,17.86 38.63,40.19 0,22.11 -15.63,40.19 -38.86,40.19z"/>
   <path id="_5" class="fil0" d="M4194.6 1120.19c45.11,0 80.62,-35.95 80.62,-80.62 0,-44.66 -35.51,-80.61 -80.62,-80.61 -45.11,0 -80.62,35.95 -80.62,80.61 0,44.67 35.51,80.62 80.62,80.62zm0 -11.39c-38.63,0 -68.78,-30.81 -68.78,-69.23 0,-38.4 30.15,-69.23 68.78,-69.23 38.63,0 68.78,30.82 68.78,69.23 0,38.41 -30.15,69.23 -68.78,69.23z"/>
   <polygon id="_6" class="fil0" points="4738.64,961.42 4693.98,961.42 4637.26,961.42 4637.26,972.59 4681.91,972.59 4681.91,1117.73 4693.98,1117.73 4693.98,972.59 4738.64,972.59 "/>
   <g>
    <g>
     <circle class="fil1" cx="437.05" cy="556.91" r="90.35"/>
     <circle class="fil1" cx="854.67" cy="556.91" r="90.35"/>
    </g>
    <path class="fil1" d="M466.76 1310.66c111.09,-71.07 221.72,-148.45 332.81,-219.52 69.28,0 114.76,0 184.04,0 116.62,0 307.33,-116.15 307.62,-244.58 1.79,-202.77 -2.08,-404.61 -0.29,-607.38 0,-127.69 -152.26,-239.18 -264.27,-239.18 -239.49,0 -516.61,0 -756.1,0 -151.6,0 -270.56,118.41 -270.56,239.18 0,218.89 -0.01,388.48 -0.01,607.38 0.01,108.1 144,244.58 270.57,244.58 72.86,0 123.33,0 196.19,0 0,-68.08 0,-136.17 0,-204.25 -62.12,0 -134.09,0 -196.19,0 -43.94,0 -79.75,-41.99 -79.75,-82.43 0,-166.93 0,-333.86 0,-500.79 0,-42.05 29.95,-90.91 79.75,-90.91 233.96,0 479.08,0 713.04,0 64.45,0 95.86,45.88 95.86,90.91 0,175.3 0,325.5 0,500.79 0,50.04 -50.5,82.43 -95.86,82.43 -68.08,0 -106.73,0 -174.82,0l-342.03 219.03 0 204.75z"/>
   </g>
  </g>
 </g>
</svg>
